<svg width="791" height="434" viewBox="0 0 791 434" fill="none" xmlns="http://www.w3.org/2000/svg">
<mask id="path-1-outside-1_0_151" maskUnits="userSpaceOnUse" x="-2" y="-2" width="795" height="438" fill="black">
<rect fill="white" x="-2" y="-2" width="795" height="438"/>
<path d="M6.79039 106.98C6.79039 86.4694 10.8926 68.2049 19.0969 52.1869C27.4967 36.1688 39.4125 23.7646 54.8445 14.9742C70.2766 5.9885 88.4434 1.49563 109.345 1.49563C127.316 1.49563 143.335 4.91412 157.399 11.7511C171.659 18.3927 183.184 27.8668 191.975 40.1734C200.96 52.4799 206.918 66.8375 209.848 83.2463H141.283C138.158 76.4093 133.665 71.1351 127.805 67.4236C122.14 63.5167 115.596 61.5633 108.173 61.5633C97.2338 61.5633 88.541 65.6655 82.0948 73.8699C75.8438 82.0742 72.7183 93.1111 72.7183 106.98C72.7183 120.85 75.8438 131.886 82.0948 140.091C88.541 148.295 97.2338 152.397 108.173 152.397C115.596 152.397 122.14 150.542 127.805 146.83C133.665 142.923 138.158 137.551 141.283 130.714H209.848C206.918 147.123 200.96 161.481 191.975 173.787C183.184 186.094 171.659 195.666 157.399 202.503C143.335 209.144 127.316 212.465 109.345 212.465C88.4434 212.465 70.2766 208.07 54.8445 199.279C39.4125 190.294 27.4967 177.792 19.0969 161.774C10.8926 145.756 6.79039 127.491 6.79039 106.98ZM328.498 213.051C308.964 213.051 290.992 208.461 274.584 199.279C258.37 190.098 245.478 177.401 235.906 161.188C226.334 144.974 221.548 126.71 221.548 106.394C221.548 86.0787 226.334 67.8143 235.906 51.6009C245.478 35.3875 258.37 22.7879 274.584 13.8022C290.992 4.6211 308.964 0.0305653 328.498 0.0305653C348.032 0.0305653 365.906 4.6211 382.12 13.8022C398.333 22.7879 411.128 35.3875 420.504 51.6009C430.076 67.8143 434.862 86.0787 434.862 106.394C434.862 126.71 430.076 144.974 420.504 161.188C411.128 177.401 398.235 190.098 381.827 199.279C365.613 208.461 347.837 213.051 328.498 213.051ZM328.498 152.397C341.391 152.397 351.353 148.295 358.386 140.091C365.418 131.691 368.934 120.459 368.934 106.394C368.934 92.1344 365.418 80.9022 358.386 72.6978C351.353 64.2981 341.391 60.0982 328.498 60.0982C315.41 60.0982 305.35 64.2981 298.318 72.6978C291.286 80.9022 287.769 92.1344 287.769 106.394C287.769 120.459 291.286 131.691 298.318 140.091C305.35 148.295 315.41 152.397 328.498 152.397ZM651.424 211L586.375 211L517.517 106.687V211H452.468L452.468 3.54673L517.517 3.54673L586.375 109.617V3.54673L651.424 3.54673V211ZM175.566 223.547L175.566 275.117L120.479 275.117L120.479 431H55.4306L55.4306 275.117H0.930131L0.930131 223.547L175.566 223.547ZM320.376 399.648H251.225L240.97 431L172.698 431L248.588 223.547L323.599 223.547L399.197 431H330.632L320.376 399.648ZM304.554 350.714L285.801 292.991L267.048 350.714H304.554ZM571.031 223.547V275.117L515.944 275.117L515.944 431H450.895V275.117H396.395V223.547L571.031 223.547ZM683.902 433.051C664.368 433.051 646.397 428.461 629.988 419.279C613.775 410.098 600.882 397.401 591.31 381.188C581.739 364.974 576.953 346.71 576.953 326.394C576.953 306.079 581.739 287.814 591.31 271.601C600.882 255.387 613.775 242.788 629.988 233.802C646.397 224.621 664.368 220.031 683.902 220.031C703.437 220.031 721.31 224.621 737.524 233.802C753.737 242.788 766.532 255.387 775.909 271.601C785.48 287.814 790.266 306.079 790.266 326.394C790.266 346.71 785.48 364.974 775.909 381.188C766.532 397.401 753.64 410.098 737.231 419.279C721.017 428.461 703.241 433.051 683.902 433.051ZM683.902 372.397C696.795 372.397 706.757 368.295 713.79 360.091C720.822 351.691 724.338 340.459 724.338 326.394C724.338 312.134 720.822 300.902 713.79 292.698C706.757 284.298 696.795 280.098 683.902 280.098C670.815 280.098 660.754 284.298 653.722 292.698C646.69 300.902 643.174 312.134 643.174 326.394C643.174 340.459 646.69 351.691 653.722 360.091C660.754 368.295 670.815 372.397 683.902 372.397Z"/>
</mask>
<path d="M19.0969 52.1869L17.3257 51.2581L17.3212 51.2666L17.3169 51.2751L19.0969 52.1869ZM54.8445 14.9742L55.8344 16.7121L55.8427 16.7074L55.8509 16.7026L54.8445 14.9742ZM157.399 11.7511L156.525 13.5498L156.54 13.5571L156.555 13.5641L157.399 11.7511ZM191.975 40.1734L190.347 41.3358L190.353 41.3443L190.359 41.3528L191.975 40.1734ZM209.848 83.2463V85.2463H212.237L211.817 82.8947L209.848 83.2463ZM141.283 83.2463L139.464 84.0778L139.999 85.2463H141.283V83.2463ZM127.805 67.4236L126.669 69.07L126.702 69.0923L126.735 69.1132L127.805 67.4236ZM82.0948 73.8699L80.5221 72.6342L80.5129 72.6459L80.5039 72.6578L82.0948 73.8699ZM82.0948 140.091L80.5039 141.303L80.5129 141.315L80.5221 141.326L82.0948 140.091ZM127.805 146.83L128.901 148.503L128.908 148.499L128.914 148.494L127.805 146.83ZM141.283 130.714V128.714H139.999L139.464 129.883L141.283 130.714ZM209.848 130.714L211.817 131.066L212.237 128.714H209.848V130.714ZM191.975 173.787L190.359 172.608L190.353 172.616L190.347 172.625L191.975 173.787ZM157.399 202.503L158.253 204.311L158.264 204.306L157.399 202.503ZM54.8445 199.279L53.8382 201.008L53.8464 201.013L53.8546 201.017L54.8445 199.279ZM19.0969 161.774L17.3169 162.686L17.3212 162.694L17.3257 162.703L19.0969 161.774ZM8.79039 106.98C8.79039 86.7419 12.8362 68.7973 20.877 53.0986L17.3169 51.2751C8.94891 67.6126 4.79039 86.197 4.79039 106.98H8.79039ZM20.8682 53.1157C29.0937 37.4299 40.7413 25.3094 55.8344 16.7121L53.8546 13.2364C38.0837 22.2198 25.8996 34.9078 17.3257 51.2581L20.8682 53.1157ZM55.8509 16.7026C70.9288 7.92307 88.7361 3.49563 109.345 3.49563V-0.504371C88.1506 -0.504371 69.6243 4.05393 53.8382 13.2459L55.8509 16.7026ZM109.345 3.49563C127.059 3.49563 142.771 6.86375 156.525 13.5498L158.274 9.95236C143.898 2.96449 127.574 -0.504371 109.345 -0.504371V3.49563ZM156.555 13.5641C170.515 20.0661 181.766 29.3215 190.347 41.3358L193.602 39.0109C184.603 26.4121 172.803 16.7193 158.244 9.9381L156.555 13.5641ZM190.359 41.3528C199.15 53.3914 204.998 67.4598 207.88 83.5979L211.817 82.8947C208.839 66.2153 202.771 51.5684 193.59 38.994L190.359 41.3528ZM209.848 81.2463H141.283V85.2463H209.848V81.2463ZM143.102 82.4148C139.83 75.256 135.09 69.6703 128.875 65.7339L126.735 69.1132C132.24 72.5999 136.486 77.5626 139.464 84.0778L143.102 82.4148ZM128.94 65.7772C122.915 61.6217 115.968 59.5633 108.173 59.5633V63.5633C115.224 63.5633 121.365 65.4118 126.669 69.07L128.94 65.7772ZM108.173 59.5633C96.6545 59.5633 87.3684 63.9208 80.5221 72.6342L83.6674 75.1055C89.7137 67.4102 97.813 63.5633 108.173 63.5633V59.5633ZM80.5039 72.6578C73.9092 81.3133 70.7183 92.8229 70.7183 106.98H74.7183C74.7183 93.3993 77.7784 82.8352 83.6856 75.082L80.5039 72.6578ZM70.7183 106.98C70.7183 121.138 73.9092 132.647 80.5039 141.303L83.6856 138.879C77.7784 131.126 74.7183 120.561 74.7183 106.98H70.7183ZM80.5221 141.326C87.3684 150.04 96.6545 154.397 108.173 154.397V150.397C97.813 150.397 89.7137 146.551 83.6674 138.855L80.5221 141.326ZM108.173 154.397C115.946 154.397 122.879 152.448 128.901 148.503L126.709 145.157C121.401 148.635 115.245 150.397 108.173 150.397V154.397ZM128.914 148.494C135.105 144.367 139.833 138.697 143.102 131.546L139.464 129.883C136.483 136.406 132.225 141.479 126.695 145.166L128.914 148.494ZM141.283 132.714H209.848V128.714H141.283V132.714ZM207.88 130.363C204.998 146.501 199.15 160.569 190.359 172.608L193.59 174.967C202.771 162.392 208.839 147.745 211.817 131.066L207.88 130.363ZM190.347 172.625C181.762 184.644 170.505 194.001 156.534 200.699L158.264 204.306C172.814 197.33 184.607 187.544 193.602 174.95L190.347 172.625ZM156.545 200.694C142.786 207.191 127.067 210.465 109.345 210.465V214.465C127.566 214.465 143.883 211.097 158.253 204.311L156.545 200.694ZM109.345 210.465C88.7287 210.465 70.9154 206.132 55.8344 197.542L53.8546 201.017C69.6378 210.008 88.158 214.465 109.345 214.465V210.465ZM55.8509 197.551C40.7484 188.757 29.0956 176.534 20.8682 160.845L17.3257 162.703C25.8977 179.049 38.0767 191.83 53.8382 201.008L55.8509 197.551ZM20.877 160.862C12.8362 145.163 8.79039 127.219 8.79039 106.98H4.79039C4.79039 127.764 8.94891 146.348 17.3169 162.686L20.877 160.862ZM274.584 199.279L273.598 201.02L273.607 201.025L274.584 199.279ZM235.906 161.188L234.184 162.205L235.906 161.188ZM274.584 13.8022L275.553 15.5515L275.56 15.5475L274.584 13.8022ZM382.12 13.8022L381.134 15.5425L381.142 15.547L381.15 15.5515L382.12 13.8022ZM420.504 51.6009L418.773 52.6021L418.777 52.6099L418.782 52.6176L420.504 51.6009ZM420.504 161.188L418.782 160.171L418.777 160.179L418.773 160.187L420.504 161.188ZM381.827 199.279L380.85 197.534L380.841 197.539L381.827 199.279ZM358.385 140.091L359.904 141.392L359.912 141.384L359.919 141.375L358.385 140.091ZM358.385 72.6978L356.852 73.9817L356.859 73.9906L356.867 73.9994L358.385 72.6978ZM298.318 72.6978L299.836 73.9994L299.844 73.9906L299.851 73.9817L298.318 72.6978ZM298.318 140.091L296.784 141.375L296.792 141.384L296.799 141.392L298.318 140.091ZM328.498 211.051C309.292 211.051 291.659 206.542 275.56 197.534L273.607 201.025C290.326 210.38 308.636 215.051 328.498 215.051V211.051ZM275.569 197.539C259.664 188.532 247.024 176.086 237.628 160.171L234.184 162.205C243.932 178.716 257.077 191.664 273.598 201.02L275.569 197.539ZM237.628 160.171C228.253 144.29 223.548 126.381 223.548 106.394H219.548C219.548 127.038 224.416 145.659 234.184 162.205L237.628 160.171ZM223.548 106.394C223.548 86.4072 228.253 68.4988 237.628 52.6176L234.184 50.5841C224.416 67.1297 219.548 85.7503 219.548 106.394H223.548ZM237.628 52.6176C247.022 36.7061 259.657 24.3616 275.553 15.5515L273.614 12.0529C257.084 21.2142 243.934 34.0689 234.184 50.5841L237.628 52.6176ZM275.56 15.5475C291.659 6.54007 309.292 2.03057 328.498 2.03057V-1.96943C308.636 -1.96943 290.326 2.70214 273.607 12.0568L275.56 15.5475ZM328.498 2.03057C347.704 2.03057 365.236 6.54001 381.134 15.5425L383.105 12.0618C366.576 2.7022 348.36 -1.96943 328.498 -1.96943V2.03057ZM381.15 15.5515C397.043 24.3596 409.576 36.6991 418.773 52.6021L422.236 50.5996C412.68 34.0759 399.623 21.2162 383.089 12.0529L381.15 15.5515ZM418.782 52.6176C428.158 68.4988 432.862 86.4072 432.862 106.394H436.862C436.862 85.7503 431.994 67.1297 422.227 50.5841L418.782 52.6176ZM432.862 106.394C432.862 126.381 428.158 144.29 418.782 160.171L422.227 162.205C431.994 145.659 436.862 127.038 436.862 106.394H432.862ZM418.773 160.187C409.577 176.087 396.946 188.528 380.85 197.534L382.803 201.025C399.525 191.669 412.678 178.715 422.236 162.189L418.773 160.187ZM380.841 197.539C364.94 206.543 347.505 211.051 328.498 211.051V215.051C348.169 215.051 366.286 210.378 382.812 201.02L380.841 197.539ZM328.498 154.397C341.851 154.397 352.418 150.126 359.904 141.392L356.867 138.789C350.289 146.464 340.931 150.397 328.498 150.397V154.397ZM359.919 141.375C367.33 132.523 370.934 120.792 370.934 106.394H366.934C366.934 120.125 363.506 130.859 356.852 138.807L359.919 141.375ZM370.934 106.394C370.934 91.8117 367.335 80.0654 359.904 71.3962L356.867 73.9994C363.501 81.7389 366.934 92.4571 366.934 106.394H370.934ZM359.919 71.4139C352.438 62.4782 341.867 58.0982 328.498 58.0982V62.0982C340.915 62.0982 350.268 66.118 356.852 73.9817L359.919 71.4139ZM328.498 58.0982C314.946 58.0982 304.271 62.4711 296.784 71.4139L299.851 73.9817C306.429 66.1251 315.875 62.0982 328.498 62.0982V58.0982ZM296.799 71.3962C289.369 80.0654 285.769 91.8117 285.769 106.394H289.769C289.769 92.4571 293.202 81.7389 299.836 73.9994L296.799 71.3962ZM285.769 106.394C285.769 120.792 289.374 132.523 296.784 141.375L299.851 138.807C293.197 130.859 289.769 120.125 289.769 106.394H285.769ZM296.799 141.392C304.291 150.133 314.961 154.397 328.498 154.397V150.397C315.859 150.397 306.409 146.457 299.836 138.789L296.799 141.392ZM651.424 211V213H653.424V211H651.424ZM586.375 211L584.706 212.102L585.299 213H586.375V211ZM517.517 106.687L519.186 105.586L515.517 100.027V106.687H517.517ZM517.517 211V213H519.517V211H517.517ZM452.468 211H450.468V213H452.468V211ZM452.468 3.54673V1.54673L450.468 1.54673V3.54673H452.468ZM517.517 3.54673L519.194 2.45773L518.603 1.54673L517.517 1.54673V3.54673ZM586.375 109.617L584.697 110.706L588.375 116.371V109.617H586.375ZM586.375 3.54673V1.54673L584.375 1.54673V3.54673L586.375 3.54673ZM651.424 3.54673L653.424 3.54673V1.54673H651.424V3.54673ZM651.424 209L586.375 209V213L651.424 213V209ZM588.044 209.898L519.186 105.586L515.848 107.789L584.706 212.102L588.044 209.898ZM515.517 106.687V211H519.517V106.687H515.517ZM517.517 209H452.468V213H517.517V209ZM454.468 211L454.468 3.54673L450.468 3.54673L450.468 211H454.468ZM452.468 5.54673L517.517 5.54673V1.54673L452.468 1.54673V5.54673ZM515.839 4.63573L584.697 110.706L588.052 108.528L519.194 2.45773L515.839 4.63573ZM588.375 109.617V3.54673L584.375 3.54673V109.617H588.375ZM586.375 5.54673L651.424 5.54673V1.54673L586.375 1.54673V5.54673ZM649.424 3.54673V211H653.424V3.54673L649.424 3.54673ZM175.566 223.547H177.566V221.547H175.566V223.547ZM175.566 275.117V277.117H177.566V275.117H175.566ZM120.479 275.117V273.117H118.479V275.117H120.479ZM120.479 431V433H122.479V431H120.479ZM55.4306 431H53.4306V433H55.4306V431ZM55.4306 275.117H57.4306V273.117H55.4306V275.117ZM0.930131 275.117H-1.06987L-1.06987 277.117H0.930131L0.930131 275.117ZM0.930131 223.547L0.930131 221.547H-1.06987L-1.06987 223.547H0.930131ZM173.566 223.547L173.566 275.117L177.566 275.117L177.566 223.547H173.566ZM175.566 273.117L120.479 273.117V277.117L175.566 277.117V273.117ZM118.479 275.117L118.479 431H122.479L122.479 275.117H118.479ZM120.479 429H55.4306V433H120.479V429ZM57.4306 431L57.4306 275.117H53.4306L53.4306 431H57.4306ZM55.4306 273.117H0.930131L0.930131 277.117H55.4306V273.117ZM2.93013 275.117L2.93013 223.547H-1.06987L-1.06987 275.117H2.93013ZM0.930131 225.547L175.566 225.547V221.547L0.930131 221.547L0.930131 225.547ZM320.376 399.648L322.277 399.026L321.826 397.648H320.376V399.648ZM251.225 399.648V397.648H249.775L249.324 399.026L251.225 399.648ZM240.97 431V433H242.42L242.871 431.622L240.97 431ZM172.698 431L170.819 430.313L169.836 433H172.698V431ZM248.588 223.547V221.547H247.19L246.71 222.86L248.588 223.547ZM323.599 223.547L325.478 222.862L324.999 221.547H323.599V223.547ZM399.197 431V433H402.054L401.076 430.315L399.197 431ZM330.632 431L328.731 431.622L329.182 433H330.632V431ZM304.554 350.714V352.714H307.306L306.456 350.096L304.554 350.714ZM285.801 292.991L287.703 292.373L285.801 286.518L283.899 292.373L285.801 292.991ZM267.048 350.714L265.146 350.096L264.295 352.714H267.048V350.714ZM320.376 397.648H251.225V401.648H320.376V397.648ZM249.324 399.026L239.069 430.378L242.871 431.622L253.126 400.269L249.324 399.026ZM240.97 429L172.698 429V433L240.97 433V429ZM174.576 431.687L250.466 224.234L246.71 222.86L170.819 430.313L174.576 431.687ZM248.588 225.547L323.599 225.547V221.547L248.588 221.547V225.547ZM321.72 224.231L397.318 431.685L401.076 430.315L325.478 222.862L321.72 224.231ZM399.197 429H330.632V433H399.197V429ZM332.533 430.378L322.277 399.026L318.475 400.269L328.731 431.622L332.533 430.378ZM306.456 350.096L287.703 292.373L283.899 293.609L302.651 351.332L306.456 350.096ZM283.899 292.373L265.146 350.096L268.95 351.332L287.703 293.609L283.899 292.373ZM267.048 352.714H304.554V348.714H267.048V352.714ZM571.031 223.547H573.031V221.547H571.031V223.547ZM571.031 275.117V277.117H573.031V275.117H571.031ZM515.944 275.117V273.117H513.944V275.117H515.944ZM515.944 431V433H517.944V431H515.944ZM450.895 431H448.895V433H450.895V431ZM450.895 275.117H452.895V273.117H450.895V275.117ZM396.395 275.117H394.395V277.117H396.395V275.117ZM396.395 223.547V221.547H394.395V223.547H396.395ZM569.031 223.547V275.117H573.031V223.547H569.031ZM571.031 273.117L515.944 273.117V277.117L571.031 277.117V273.117ZM513.944 275.117L513.944 431H517.944L517.944 275.117H513.944ZM515.944 429H450.895V433H515.944V429ZM452.895 431V275.117H448.895V431H452.895ZM450.895 273.117H396.395V277.117H450.895V273.117ZM398.395 275.117V223.547H394.395V275.117H398.395ZM396.395 225.547L571.031 225.547V221.547L396.395 221.547V225.547ZM629.988 419.279L629.003 421.02L629.011 421.025L629.988 419.279ZM591.31 381.188L589.588 382.205L591.31 381.188ZM629.988 233.802L630.958 235.551L630.965 235.548L629.988 233.802ZM737.524 233.802L736.538 235.543L736.546 235.547L736.554 235.551L737.524 233.802ZM775.909 271.601L774.177 272.602L774.182 272.61L774.186 272.618L775.909 271.601ZM775.909 381.188L774.186 380.171L774.182 380.179L774.177 380.187L775.909 381.188ZM737.231 419.279L736.254 417.534L736.245 417.539L737.231 419.279ZM713.79 360.091L715.308 361.392L715.316 361.384L715.323 361.375L713.79 360.091ZM713.79 292.698L712.256 293.982L712.264 293.991L712.271 293.999L713.79 292.698ZM653.722 292.698L655.241 293.999L655.248 293.991L655.256 293.982L653.722 292.698ZM653.722 360.091L652.189 361.375L652.196 361.384L652.204 361.392L653.722 360.091ZM683.902 431.051C664.696 431.051 647.063 426.542 630.965 417.534L629.011 421.025C645.73 430.38 664.04 435.051 683.902 435.051V431.051ZM630.974 417.539C615.068 408.533 602.428 396.086 593.033 380.171L589.588 382.205C599.336 398.716 612.481 411.664 629.003 421.02L630.974 417.539ZM593.033 380.171C583.657 364.29 578.953 346.381 578.953 326.394H574.953C574.953 347.038 579.82 365.659 589.588 382.205L593.033 380.171ZM578.953 326.394C578.953 306.407 583.657 288.499 593.033 272.618L589.588 270.584C579.82 287.13 574.953 305.75 574.953 326.394H578.953ZM593.033 272.618C602.426 256.706 615.061 244.362 630.958 235.551L629.019 232.053C612.488 241.214 599.338 254.069 589.588 270.584L593.033 272.618ZM630.965 235.548C647.063 226.54 664.696 222.031 683.902 222.031V218.031C664.04 218.031 645.73 222.702 629.011 232.057L630.965 235.548ZM683.902 222.031C703.109 222.031 720.64 226.54 736.538 235.543L738.509 232.062C721.981 222.702 703.765 218.031 683.902 218.031V222.031ZM736.554 235.551C752.447 244.36 764.98 256.699 774.177 272.602L777.64 270.6C768.084 254.076 755.027 241.216 738.493 232.053L736.554 235.551ZM774.186 272.618C783.562 288.499 788.266 306.407 788.266 326.394H792.266C792.266 305.75 787.399 287.13 777.631 270.584L774.186 272.618ZM788.266 326.394C788.266 346.381 783.562 364.29 774.186 380.171L777.631 382.205C787.399 365.659 792.266 347.038 792.266 326.394H788.266ZM774.177 380.187C764.982 396.087 752.35 408.528 736.254 417.534L738.207 421.025C754.929 411.669 768.083 398.715 777.64 382.189L774.177 380.187ZM736.245 417.539C720.344 426.543 702.91 431.051 683.902 431.051V435.051C703.573 435.051 721.691 430.378 738.216 421.02L736.245 417.539ZM683.902 374.397C697.255 374.397 707.822 370.126 715.308 361.392L712.271 358.789C705.693 366.464 696.335 370.397 683.902 370.397V374.397ZM715.323 361.375C722.734 352.523 726.338 340.792 726.338 326.394H722.338C722.338 340.125 718.91 350.859 712.256 358.807L715.323 361.375ZM726.338 326.394C726.338 311.812 722.739 300.065 715.308 291.396L712.271 293.999C718.905 301.739 722.338 312.457 722.338 326.394H726.338ZM715.323 291.414C707.842 282.478 697.271 278.098 683.902 278.098V282.098C696.319 282.098 705.673 286.118 712.256 293.982L715.323 291.414ZM683.902 278.098C670.35 278.098 659.676 282.471 652.189 291.414L655.256 293.982C661.833 286.125 671.279 282.098 683.902 282.098V278.098ZM652.204 291.396C644.773 300.065 641.174 311.812 641.174 326.394H645.174C645.174 312.457 648.607 301.739 655.241 293.999L652.204 291.396ZM641.174 326.394C641.174 340.792 644.778 352.523 652.189 361.375L655.256 358.807C648.602 350.859 645.174 340.125 645.174 326.394H641.174ZM652.204 361.392C659.696 370.133 670.366 374.397 683.902 374.397V370.397C671.263 370.397 661.813 366.457 655.241 358.789L652.204 361.392Z" fill="#FFDADA" mask="url(#path-1-outside-1_0_151)"/>
</svg>
