<svg width="791" height="434" viewBox="0 0 791 434" fill="none" xmlns="http://www.w3.org/2000/svg">
<path d="M6.79039 106.98C6.79039 86.4694 10.8926 68.2049 19.0969 52.1869C27.4967 36.1688 39.4125 23.7646 54.8445 14.9742C70.2766 5.9885 88.4434 1.49563 109.345 1.49563C127.316 1.49563 143.335 4.91412 157.399 11.7511C171.659 18.3927 183.184 27.8668 191.975 40.1734C200.96 52.4799 206.918 66.8375 209.848 83.2463H141.283C138.158 76.4093 133.665 71.1351 127.805 67.4236C122.14 63.5167 115.596 61.5633 108.173 61.5633C97.2338 61.5633 88.541 65.6655 82.0948 73.8699C75.8438 82.0742 72.7183 93.1111 72.7183 106.98C72.7183 120.85 75.8438 131.886 82.0948 140.091C88.541 148.295 97.2338 152.397 108.173 152.397C115.596 152.397 122.14 150.542 127.805 146.83C133.665 142.923 138.158 137.551 141.283 130.714H209.848C206.918 147.123 200.96 161.481 191.975 173.787C183.184 186.094 171.659 195.666 157.399 202.503C143.335 209.144 127.316 212.465 109.345 212.465C88.4434 212.465 70.2766 208.07 54.8445 199.279C39.4125 190.294 27.4967 177.792 19.0969 161.774C10.8926 145.756 6.79039 127.491 6.79039 106.98ZM328.498 213.051C308.964 213.051 290.992 208.461 274.584 199.279C258.37 190.098 245.478 177.401 235.906 161.188C226.334 144.974 221.548 126.71 221.548 106.394C221.548 86.0787 226.334 67.8143 235.906 51.6009C245.478 35.3875 258.37 22.7879 274.584 13.8022C290.992 4.6211 308.964 0.0305653 328.498 0.0305653C348.032 0.0305653 365.906 4.6211 382.12 13.8022C398.333 22.7879 411.128 35.3875 420.504 51.6009C430.076 67.8143 434.862 86.0787 434.862 106.394C434.862 126.71 430.076 144.974 420.504 161.188C411.128 177.401 398.235 190.098 381.827 199.279C365.613 208.461 347.837 213.051 328.498 213.051ZM328.498 152.397C341.391 152.397 351.353 148.295 358.386 140.091C365.418 131.691 368.934 120.459 368.934 106.394C368.934 92.1344 365.418 80.9022 358.386 72.6978C351.353 64.2981 341.391 60.0982 328.498 60.0982C315.41 60.0982 305.35 64.2981 298.318 72.6978C291.286 80.9022 287.769 92.1344 287.769 106.394C287.769 120.459 291.286 131.691 298.318 140.091C305.35 148.295 315.41 152.397 328.498 152.397ZM651.424 211L586.375 211L517.517 106.687V211H452.468L452.468 3.54673L517.517 3.54673L586.375 109.617V3.54673L651.424 3.54673V211ZM175.566 223.547L175.566 275.117L120.479 275.117L120.479 431H55.4306L55.4306 275.117H0.930131L0.930131 223.547L175.566 223.547ZM320.376 399.648H251.225L240.97 431L172.698 431L248.588 223.547L323.599 223.547L399.197 431H330.632L320.376 399.648ZM304.554 350.714L285.801 292.991L267.048 350.714H304.554ZM571.031 223.547V275.117L515.944 275.117L515.944 431H450.895V275.117H396.395V223.547L571.031 223.547ZM683.902 433.051C664.368 433.051 646.397 428.461 629.988 419.279C613.775 410.098 600.882 397.401 591.31 381.188C581.739 364.974 576.953 346.71 576.953 326.394C576.953 306.079 581.739 287.814 591.31 271.601C600.882 255.387 613.775 242.788 629.988 233.802C646.397 224.621 664.368 220.031 683.902 220.031C703.437 220.031 721.31 224.621 737.524 233.802C753.737 242.788 766.532 255.387 775.909 271.601C785.48 287.814 790.266 306.079 790.266 326.394C790.266 346.71 785.48 364.974 775.909 381.188C766.532 397.401 753.64 410.098 737.231 419.279C721.017 428.461 703.241 433.051 683.902 433.051ZM683.902 372.397C696.795 372.397 706.757 368.295 713.79 360.091C720.822 351.691 724.338 340.459 724.338 326.394C724.338 312.134 720.822 300.902 713.79 292.698C706.757 284.298 696.795 280.098 683.902 280.098C670.815 280.098 660.754 284.298 653.722 292.698C646.69 300.902 643.174 312.134 643.174 326.394C643.174 340.459 646.69 351.691 653.722 360.091C660.754 368.295 670.815 372.397 683.902 372.397Z" fill="#FFDADA"/>
</svg>
